<svg xmlns="http://www.w3.org/2000/svg" width="36.592" height="16.682" viewBox="0 0 36.592 16.682"><g transform="translate(0 -139.296)"><path d="M15,309.376s14.58.179,17.438.536,9.184.286,11.113-.214,6.468-1.858,6-.858-.893,2.037-1.787,2.18a76.821,76.821,0,0,1-11.578,1.537c-4.61.071-18.546.071-19.725.071s-1.394-1.322-1.394-1.68S15,309.376,15,309.376Z" transform="translate(-13.928 -157.094)" fill="#ee3625"/><g transform="translate(0 139.296)"><g transform="translate(0 0)"><path d="M36.592,149.794a3.63,3.63,0,0,0-3.236-3.606,18.4,18.4,0,0,1-2.689-.5c-3.371-.9-12.539-4.954-15.268-6.176a2.386,2.386,0,0,0-2.681.5L9.525,143.2a1.254,1.254,0,0,1-1.29.3l-3.59-1.2a.648.648,0,0,1-.444-.616v-.341a1.185,1.185,0,0,0-1.184-1.184H2.332a1.8,1.8,0,0,0-1.792,1.683L0,150.389a2.383,2.383,0,0,0,.608,1.728v2.677A1.185,1.185,0,0,0,1.8,155.977H21.963a46.379,46.379,0,0,0,12.473-1.7,1.8,1.8,0,0,0,1.108-.922l.988-1.975a.571.571,0,0,0,.06-.256h0v-1.333Zm-6.221-3a19.534,19.534,0,0,0,2.857.535c.072.008.144.02.214.034-.207.067-.444.139-.714.215a37.513,37.513,0,0,1-5.977,1.088,2.411,2.411,0,0,0-1.321.572l-.85.735a.576.576,0,0,0-.131-.026c-1.543-.119-3.16-.285-4.763-.475l4.379-2.624c1.94.017,3.25-.251,3.983-.81C28.958,146.364,29.753,146.626,30.372,146.791Zm-16.138,1.945c-.607-.09-1.192-.18-1.751-.267l3.749-2.246a1.264,1.264,0,0,1,.876-.161q.63.115,1.233.213Zm5.9-2.2q.987.128,1.879.2l-4.168,2.5c-.613-.08-1.218-.162-1.811-.244Zm3.253,4.467-1.566,1.355c-1.91-.051-3.635-.166-5.318-.278-2.17-.145-4.412-.294-7.034-.306l-1.619-2.915C10.609,149.348,17.4,150.482,23.385,151.006Zm-21.7-9.087a.651.651,0,0,1,.648-.609h.686a.038.038,0,0,1,.038.038v.341a1.793,1.793,0,0,0,1.228,1.7l3.589,1.2a2.393,2.393,0,0,0,2.463-.581l3.193-3.193a1.248,1.248,0,0,1,1.4-.261l.7.311-.58.63a.573.573,0,1,0,.843.776l.842-.916.981.431-.491.534a.573.573,0,1,0,.843.776l.759-.825.985.426-.413.449a.573.573,0,1,0,.843.776l.686-.746.991.42-.346.376a.573.573,0,1,0,.843.776l.627-.682c1.21.5,2.409.986,3.513,1.411-1.628.428-4.933.244-9.243-.541a2.408,2.408,0,0,0-1.67.3l-4.92,2.947c-1.822-.3-3.164-.539-3.689-.635A6.079,6.079,0,0,0,4.38,145.6l-2.86-1.073Zm-.536,8.536.3-4.73,2.533.95A4.932,4.932,0,0,1,6.555,148.9l1.6,2.881H2.407a1.261,1.261,0,0,1-1.259-1.321Zm33.372,2.391a.655.655,0,0,1-.4.334,45.887,45.887,0,0,1-12.153,1.652H1.8a.038.038,0,0,1-.038-.038V152.92H9.129c2.731,0,5.052.155,7.3.3,2.263.151,4.6.307,7.372.307a44.242,44.242,0,0,0,11.122-1.487Zm.927-2.142a43.328,43.328,0,0,1-11.65,1.683h-.255l2.64-2.284a1.288,1.288,0,0,1,.7-.3,29.929,29.929,0,0,0,7.895-1.705,2.47,2.47,0,0,1,.674,1.7v.91Z" transform="translate(0 -139.296)"/></g></g></g></svg>