<svg xmlns="http://www.w3.org/2000/svg" width="29.688" height="27.199" viewBox="0 0 29.688 27.199"><g transform="translate(0 -21)"><path d="M79.029,217.116l2.59-.116,16.39.077.657,5.373s1.005,3.44-1.546,4.02a22.576,22.576,0,0,1-6.61-.039l-.155-2.4-1.508-.116H86.915l-.193,2.551-4.02.077-3.015-.193-1.044-1.082-.309-1.314Z" transform="translate(-73.791 -184.635)" fill="#ee3625"/><path d="M156.06,262.879a.435.435,0,0,0,.435-.435v-.975a.435.435,0,0,0-.87,0v.975A.435.435,0,0,0,156.06,262.879Z" transform="translate(-146.601 -226.117)"/><path d="M341.81,262.879a.435.435,0,0,0,.435-.435v-.975a.435.435,0,0,0-.87,0v.975A.435.435,0,0,0,341.81,262.879Z" transform="translate(-321.581 -226.117)"/><path d="M227.341,278.131a2.192,2.192,0,0,0,1.657-.737.435.435,0,1,0-.655-.572,1.361,1.361,0,0,1-2,0,.435.435,0,1,0-.655.572A2.193,2.193,0,0,0,227.341,278.131Z" transform="translate(-212.497 -240.848)"/><path d="M246.455,363.769c0-.612-.28-1.109-.626-1.109s-.626.5-.626,1.109.28,1.109.626,1.109S246.455,364.382,246.455,363.769Z" transform="translate(-230.985 -321.849)"/><path d="M29.008,40.745a.435.435,0,0,0-.359.5,12.826,12.826,0,0,1,.169,2.064c0,2.668-1.509,4.021-4.484,4.021H5.354C2.378,47.33.87,45.977.87,43.309a14.576,14.576,0,0,1,2.377-7.693,17.592,17.592,0,0,1,1.523-2.052S4.132,39,4.131,39.007a3,3,0,0,0,2.946,3.348h5.5v1.5a1.222,1.222,0,0,0,1.2,1.2h2.128a1.216,1.216,0,0,0,1.2-1.2v-1.5h5.5a3.015,3.015,0,0,0,2.946-3.343l-.638-5.445a16.8,16.8,0,0,1,3.342,5.992.435.435,0,1,0,.834-.248,17.534,17.534,0,0,0-4.325-7.185v-1.2A9.936,9.936,0,0,0,14.844,21a9.815,9.815,0,0,0-6.151,2.141.435.435,0,1,0,.54.682,8.953,8.953,0,0,1,5.611-1.953A9.066,9.066,0,0,1,23.9,30.925v.954H22.176v-.954a7.332,7.332,0,0,0-14.664,0v.954H5.788v-.954A9.042,9.042,0,0,1,8.03,24.968a.435.435,0,1,0-.654-.573,9.913,9.913,0,0,0-2.457,6.53v1.2a17.265,17.265,0,0,0-2.391,3A15.215,15.215,0,0,0,0,43.309C0,46.463,1.9,48.2,5.354,48.2H24.334c3.452,0,5.354-1.737,5.354-4.891a13.712,13.712,0,0,0-.181-2.2A.435.435,0,0,0,29.008,40.745ZM16.242,43.852a.334.334,0,0,1-.334.334H13.78a.334.334,0,0,1-.333-.334V39.988a.339.339,0,0,1,.333-.334h2.128a.337.337,0,0,1,.334.334ZM8.382,30.925a6.462,6.462,0,1,1,12.924,0v.954H8.382ZM4.995,39.113l.746-6.364H23.947l.747,6.369a2.123,2.123,0,0,1-2.083,2.367h-5.5v-1.5a1.223,1.223,0,0,0-1.2-1.2H13.78a1.2,1.2,0,0,0-1.2,1.2v1.5h-5.5A2.121,2.121,0,0,1,4.995,39.113Z" transform="translate(0)"/></g></svg>