<svg xmlns="http://www.w3.org/2000/svg" width="30.2" height="31.19" viewBox="0 0 30.2 31.19"><g transform="translate(-8.12 0)"><path d="M351.667,12.13s4.142-2.883,6.782-.366a5.371,5.371,0,0,1,1.584,5.483s-1.828,2.274-2.112,2.477-2.355-3.939-2.8-4.427S351.667,12.13,351.667,12.13Z" transform="translate(-322.619 -10.078)" fill="#ee3625"/><path d="M131.078,335.034a10.14,10.14,0,0,1-1.5-.731c-.041-.122-1.828-1.665-1.828-1.665l-.081-1.543.528-1.1.893-1.34,1.949-.325.853.528.772,1.056s.487,1.137.487,1.259.041,1.178.041,1.34-.081.934-.081.934l-1.381.893Z" transform="translate(-112.265 -308.331)" fill="#ee3625"/><g transform="translate(22.03 17.844)"><g transform="translate(0)"><path d="M237.447,292.978a.609.609,0,0,0-.812.288l-.1.212a.609.609,0,1,0,1.1.524l.1-.212A.609.609,0,0,0,237.447,292.978Z" transform="translate(-236.475 -292.918)"/></g></g><g transform="translate(12.445 14.196)"><g transform="translate(0)"><path d="M82.854,233.2a.609.609,0,0,0-.861,0,1.3,1.3,0,0,1-1.831,0,.609.609,0,0,0-.861.861,2.516,2.516,0,0,0,3.554,0A.609.609,0,0,0,82.854,233.2Z" transform="translate(-79.122 -233.025)"/></g></g><g transform="translate(8.12 0)"><g transform="translate(0 0)"><path d="M36.706,1.618a5.527,5.527,0,0,0-7.786-.02A14.657,14.657,0,0,0,26.78.742,15.715,15.715,0,0,0,22.116,0c-3.3,0-6.185,1.388-7.522,3.619a5.619,5.619,0,0,0-.441.913,11.278,11.278,0,0,0-3.471,7.7A5.843,5.843,0,0,1,8.553,17.07a1.12,1.12,0,0,0,.138,1.861c.3.168.637.33.962.486.288.138.7.335.9.462v1.085a1.14,1.14,0,0,1-.084.431l-.151.372a1.571,1.571,0,0,0,.2,1.53v.134a1.327,1.327,0,0,0,.464,1.009v.715a2.782,2.782,0,0,0,2.779,2.779h1.8a.609.609,0,1,0,0-1.218h-1.8a1.563,1.563,0,0,1-1.561-1.561V24.1a.609.609,0,0,0-.37-.56l-.026-.011a.111.111,0,0,1-.067-.1v-.344a.609.609,0,0,0-.13-.377l-.107-.137a.351.351,0,0,1-.049-.348l.151-.372a2.353,2.353,0,0,0,.174-.889v-1.3c0-.587-.6-.874-1.588-1.349-.26-.125-.527-.253-.764-.38A7.067,7.067,0,0,0,11.9,12.233a9.419,9.419,0,0,1,1.9-5.422,7.734,7.734,0,0,0,.963,3.282c1.563,2.923,4.285,4.149,6.472,5.133,2.081.937,3.259,1.526,3.268,2.752a2.642,2.642,0,0,1-.615,1.968,1.7,1.7,0,0,1-1.119.457.6.6,0,0,0-.52.237.608.608,0,0,0-.086.571A8.816,8.816,0,0,0,23.6,23.677a5.862,5.862,0,0,0,4.53,2.293l1.636,4.8a.609.609,0,1,0,1.153-.393L29.31,25.65A12.545,12.545,0,0,0,35.5,18.316a14.77,14.77,0,0,0,.165-8.075,5.522,5.522,0,0,0,1.039-8.623ZM34.342,17.945a11.4,11.4,0,0,1-5.938,6.8,4.592,4.592,0,0,1-3.842-1.821,7.763,7.763,0,0,1-.947-1.444,2.794,2.794,0,0,0,1.106-.646,3.765,3.765,0,0,0,1-2.868c-.016-2.066-1.944-2.934-3.986-3.853-2.124-.956-4.53-2.039-5.9-4.6a5.5,5.5,0,0,1-.6-4.424l.005-.015a4.445,4.445,0,0,1,.39-.834c1.119-1.867,3.6-3.027,6.485-3.027h.018a14.587,14.587,0,0,1,4.275.685A11.2,11.2,0,0,1,33.225,7.3,13.924,13.924,0,0,1,34.342,17.945ZM35.3,9.024A15.274,15.274,0,0,0,34.3,6.72a11.971,11.971,0,0,0-4.255-4.5,4.3,4.3,0,1,1,5.262,6.8Z" transform="translate(-8.12 0)"/></g></g><g transform="translate(14.675 19.372)"><path d="M124.792,327.161l-1.908-3.3-.065-2.257a3.7,3.7,0,0,0-3.4-3.584,3.378,3.378,0,0,0-3.311,1.912l-.03.064a3.715,3.715,0,0,0,1.324,4.686l1.9,1.238,2.075,3.594a.609.609,0,0,0,1.055-.609l-1.843-3.193.734-.424.734-.424,1.68,2.911a.609.609,0,0,0,1.055-.609Zm-5.017-2.391-1.708-1.113a2.493,2.493,0,0,1-.888-3.144l.03-.063a2.156,2.156,0,0,1,1.94-1.226q.085,0,.171.007a2.481,2.481,0,0,1,2.281,2.4l.059,2.047Z" transform="translate(-115.724 -318.005)"/></g><g transform="translate(23.615 29.972)"><path d="M263.53,492.184a.609.609,0,1,0,.178.431A.613.613,0,0,0,263.53,492.184Z" transform="translate(-262.49 -492.006)"/></g><g transform="translate(16.501 3.201)"><g transform="translate(0)"><path d="M148.871,52.9a.609.609,0,0,0-.8-.321,3.544,3.544,0,0,0-1.819,5.258.609.609,0,0,0,1.074-.574,2.574,2.574,0,0,1-.287-2.1A2.609,2.609,0,0,1,148.55,53.7.609.609,0,0,0,148.871,52.9Z" transform="translate(-145.708 -52.534)"/></g></g><g transform="translate(20.51 2.803)"><g transform="translate(0)"><path d="M212.155,46h-.034a.609.609,0,0,0,0,1.218h.031a.609.609,0,1,0,0-1.218Z" transform="translate(-211.516 -46.003)"/></g></g></g></svg>