<svg xmlns="http://www.w3.org/2000/svg" width="15.68" height="11.2" viewBox="0 0 15.68 11.2"><path d="M-.805,2.464A.627.627,0,0,1-.623,2,.625.625,0,0,1-.161,1.82h3.29a.642.642,0,0,1,.4.133.622.622,0,0,1,.231.357l.336,1.372h9.436l.1-.294a.579.579,0,0,1,.6-.448.431.431,0,0,1,.182.028.6.6,0,0,1,.336.224.612.612,0,0,1,.126.378.782.782,0,0,1-.028.182l-1.652,5.5a.6.6,0,0,1-.224.336.615.615,0,0,1-.378.126H4.767a.622.622,0,0,1-.4-.14.654.654,0,0,1-.231-.35L2.625,3.094H-.161a.633.633,0,0,1-.455-.182A.6.6,0,0,1-.805,2.464ZM4.4,4.956l.868,3.472h6.846l.028-.126,1.008-3.346H4.4Zm.588,6.776a1.229,1.229,0,0,1,.385-.91,1.264,1.264,0,0,1,.917-.378,1.288,1.288,0,0,1,0,2.576,1.264,1.264,0,0,1-.917-.378A1.23,1.23,0,0,1,4.991,11.732ZM5.9,6.048H8.225V7.336H6.181Zm3.43,1.288.014-1.288h2.268l-.336,1.288Zm.518,4.4a1.229,1.229,0,0,1,.385-.91,1.263,1.263,0,0,1,.917-.378,1.288,1.288,0,0,1,0,2.576,1.263,1.263,0,0,1-.917-.378A1.229,1.229,0,0,1,9.849,11.732Z" transform="translate(0.805 -1.82)"/></svg>