<svg xmlns="http://www.w3.org/2000/svg" width="24.581" height="21.806" viewBox="0 0 24.581 21.806"><g transform="translate(-136.5 -1594.088)"><g transform="translate(451 1469.588)"><path d="M-306.51,139h-6.381a1.11,1.11,0,0,0-1.11,1.11v9.71a1.11,1.11,0,0,0,1.11,1.11h.555a1.11,1.11,0,0,1,1.11,1.11v3.884l4.668-4.668a1.109,1.109,0,0,1,.785-.325h4.534a1.11,1.11,0,0,0,1.11-1.11v-1.387" transform="translate(0 -10.116)" fill="none" stroke="#000" stroke-linecap="round" stroke-linejoin="round" stroke-width="1"/><path d="M-272.671,145.658V140.11a1.11,1.11,0,0,0-1.11-1.11H-276" transform="translate(-27.458 -10.116)" fill="none" stroke="#000" stroke-linecap="round" stroke-linejoin="round" stroke-width="1"/><path d="M-274.415,137.206h-6.476A1.11,1.11,0,0,1-282,136.1V126.11a1.11,1.11,0,0,1,1.11-1.11h12.484a1.11,1.11,0,0,1,1.11,1.11V136.1a1.11,1.11,0,0,1-1.11,1.11h0a1.11,1.11,0,0,0-1.11,1.11v3.329l-4.114-4.114A1.11,1.11,0,0,0-274.415,137.206Z" transform="translate(-23.123)" fill="none" stroke="#000" stroke-linecap="round" stroke-linejoin="round" stroke-width="1"/></g></g></svg>