<svg xmlns="http://www.w3.org/2000/svg" width="14" height="14" viewBox="0 0 14 14"><path d="M8.75,7A1.75,1.75,0,1,1,7,5.25,1.75,1.75,0,0,1,8.75,7Z" fill="none" stroke="#000" stroke-linecap="round" stroke-linejoin="round" stroke-width="1.167"/><path d="M11.317,8.75a.962.962,0,0,0,.193,1.062l.035.035A1.167,1.167,0,1,1,9.893,11.5l-.035-.035a.97.97,0,0,0-1.645.688v.1a1.167,1.167,0,1,1-2.333,0V12.2a.963.963,0,0,0-.63-.881.962.962,0,0,0-1.062.193l-.035.035A1.167,1.167,0,1,1,2.5,9.893l.035-.035a.97.97,0,0,0-.688-1.645h-.1a1.167,1.167,0,1,1,0-2.333H1.8a.963.963,0,0,0,.881-.63.963.963,0,0,0-.193-1.062l-.035-.035A1.167,1.167,0,1,1,4.107,2.5l.035.035A.962.962,0,0,0,5.2,2.73H5.25a.962.962,0,0,0,.583-.881v-.1a1.167,1.167,0,1,1,2.333,0V1.8a.97.97,0,0,0,1.645.688l.035-.035A1.167,1.167,0,1,1,11.5,4.107l-.035.035A.963.963,0,0,0,11.27,5.2V5.25a.962.962,0,0,0,.881.583h.1a1.167,1.167,0,1,1,0,2.333H12.2A.963.963,0,0,0,11.317,8.75Z" fill="none" stroke="#000" stroke-linecap="round" stroke-linejoin="round" stroke-width="1.167"/></svg>