<svg xmlns="http://www.w3.org/2000/svg" width="15.453" height="13.913" viewBox="0 0 15.453 13.913"><path d="M13.306,1.258A3.886,3.886,0,0,0,10.415,0,3.636,3.636,0,0,0,8.144.784a4.646,4.646,0,0,0-.918.959A4.643,4.643,0,0,0,6.308.784,3.635,3.635,0,0,0,4.038,0,3.886,3.886,0,0,0,1.147,1.258,4.517,4.517,0,0,0,0,4.343,5.379,5.379,0,0,0,1.434,7.864a30.565,30.565,0,0,0,3.588,3.368c.5.424,1.061.9,1.646,1.416a.848.848,0,0,0,1.117,0c.585-.512,1.149-.992,1.646-1.416a30.548,30.548,0,0,0,3.588-3.368,5.379,5.379,0,0,0,1.433-3.521,4.517,4.517,0,0,0-1.146-3.085Zm0,0" transform="translate(0.501 0.5)" fill="none" stroke="#4a44f2" stroke-linecap="square" stroke-width="1"/></svg>