<svg xmlns="http://www.w3.org/2000/svg" width="27.623" height="18" viewBox="0 0 27.623 18"><g transform="translate(-599 -99)"><path d="M624.811,134.423h-24A1.817,1.817,0,0,1,599,132.611h0a1.817,1.817,0,0,1,1.811-1.811h24a1.817,1.817,0,0,1,1.811,1.811h0A1.817,1.817,0,0,1,624.811,134.423Z" transform="translate(0 -24.6)" fill="#757a7d"/><path d="M618.019,166.123H600.811A1.817,1.817,0,0,1,599,164.311h0a1.817,1.817,0,0,1,1.811-1.811h17.208a1.817,1.817,0,0,1,1.811,1.811h0A1.817,1.817,0,0,1,618.019,166.123Z" transform="translate(0 -49.123)" fill="#757a7d"/><path d="M613.491,102.623H600.811A1.817,1.817,0,0,1,599,100.811h0A1.817,1.817,0,0,1,600.811,99h12.679a1.817,1.817,0,0,1,1.811,1.811h0A1.817,1.817,0,0,1,613.491,102.623Z" fill="#757a7d"/></g></svg>