<svg xmlns="http://www.w3.org/2000/svg" width="15.429" height="18" viewBox="0 0 15.429 18"><g transform="translate(-40 0)"><path d="M54.988,2.915l-7-2.861a.725.725,0,0,0-.548,0l-7,2.861a.7.7,0,0,0-.44.649V7.042a11.776,11.776,0,0,0,7.444,10.906.725.725,0,0,0,.54,0A11.776,11.776,0,0,0,55.429,7.042V3.564A.7.7,0,0,0,54.988,2.915ZM54,7.042a10.366,10.366,0,0,1-6.286,9.491,10.367,10.367,0,0,1-6.286-9.491V4.034l6.286-2.569L54,4.034Zm-7.075,2.37,3.07-3.022a.722.722,0,0,1,1.01,0,.7.7,0,0,1,0,.994L47.43,10.9a.722.722,0,0,1-1.01,0l-2-1.965a.7.7,0,0,1,0-.994.722.722,0,0,1,1.01,0Z" transform="translate(0 0)" fill="#00c569"/></g></svg>